<?xml version="1.0" encoding="UTF-8"?>
<svg xmlns="http://www.w3.org/2000/svg"
     version="1.2"
     baseProfile="tiny-ps"
     viewBox="0 0 512 512">

<title>Bergman Triathlon</title>

<g fill="#231f20">

<path d="M243.11 261.37h23.87v19.3h-23.87c-12.65 0-24.69-5.04-33.62-13.98-1.67-1.67-3.2-3.45-4.6-5.32h38.22z"/>
<path d="M379.01 204.78H243.13c-7.51 0-14.67 3-19.98 8.32-5.32 5.32-8.32 12.45-8.32 19.98 0 3.34.59 6.59 1.72 9.65h-20.03c-.66-3.15-.99-6.38-.99-9.65 0-12.65 5.04-24.69 13.98-33.62 8.94-8.94 20.97-13.98 33.62-13.98h135.88v19.3z"/>
<path d="M294.6 223.42c1.13 3.07 1.72 6.32 1.72 9.65 0 7.53-3 14.67-8.32 19.98-5.32 5.32-12.45 8.32-19.98 8.32H126.95v19.3h141.07c12.65 0 24.69-5.04 33.62-13.98 8.94-8.94 13.98-20.97 13.98-33.62 0-3.27-.34-6.5-.99-9.65h-20.03z"/>
<path d="M93.73 204.78h47.45c7.51 0 14.67 3 19.98 8.32 5.32 5.32 8.32 12.45 8.32 19.98s-3 14.67-8.32 19.98c-5.32 5.32-12.45 8.32-19.98 8.32H93.73v19.3h47.45c12.65 0 24.69-5.04 33.62-13.98 8.94-8.94 13.98-20.97 13.98-33.62s-5.04-24.69-13.98-33.62c-8.94-8.94-20.97-13.98-33.62-13.98H93.73v19.3z"/>
<path d="M417.55 204.78H370.1c-7.51 0-14.67 3-19.98 8.32-5.32 5.32-8.32 12.45-8.32 19.98s3 14.67 8.32 19.98c5.32 5.32 12.45 8.32 19.98 8.32h47.45v19.3H370.1c-12.65 0-24.69-5.04-33.62-13.98-8.94-8.94-13.98-20.97-13.98-33.62s5.04-24.69 13.98-33.62c8.94-8.94 20.97-13.98 33.62-13.98h47.45v19.3z"/>

<rect x="203.23" y="223.42" width="103.91" height="19.3"/>

</g>

</svg>